<svg xmlns="http://www.w3.org/2000/svg" fill="none" viewBox="0 0 1632 700" height="700" width="1632">
<g clip-path="url(#clip0_972_41097)">
<rect fill="#1C1C1C" height="700" width="1632"></rect>
<g filter="url(#filter0_d_972_41097)">
<g clip-path="url(#clip1_972_41097)">
<path stroke-linecap="round" stroke-miterlimit="10" stroke-width="1.21486" stroke="#FFFDF8" d="M921.459 124.719L939.451 186.332"></path>
<path stroke-linecap="round" stroke-miterlimit="10" stroke-width="1.21486" stroke="#FFFDF8" d="M1000.79 171.415L939.451 186.332"></path>
<path stroke-linecap="round" stroke-miterlimit="10" stroke-width="1.21486" stroke="#FFFDF8" d="M973.597 157.167L939.451 186.332"></path>
<path stroke-linecap="round" stroke-miterlimit="10" stroke-width="1.21486" stroke="#FFFDF8" d="M946.745 141.557L939.451 186.332"></path>
</g>
<g clip-path="url(#clip2_972_41097)">
<path fill="#4A87F2" d="M979.847 118.007C933.562 90.3941 901.896 124.129 911.688 135.576C920.045 145.346 939.169 131.499 939.169 131.499C939.169 131.499 965.425 141.252 979.841 118.015C965.437 141.259 985.846 160.441 985.846 160.441C985.846 160.441 981.945 183.728 994.411 186.87C1009.02 190.55 1025.16 147.188 979.847 118.007Z"></path>
<path fill="#AB9FF2" d="M979.847 118.007C936.079 98.098 923.597 124.722 926.352 135.454C929.051 145.959 940.876 144.843 940.876 144.843C940.876 144.843 965.422 141.257 979.84 118.018C965.435 141.262 973.134 164.846 973.134 164.846C973.134 164.846 977.392 175.933 988.002 173.681C998.839 171.377 1017.14 148.358 979.847 118.007Z"></path>
<path fill="#4A87F2" d="M979.847 118.007C938.414 113.115 934.998 138.312 942.647 146.326C948.93 152.909 960.159 149.758 960.163 149.757C960.161 149.76 962.334 161.22 971.024 163.921C981.598 167.206 1002.65 152.944 979.847 118.007Z"></path>
<path fill="#AB9FF2" d="M956.256 155.532C967.902 162.753 986.997 145.478 979.847 118.007C952.06 123.815 945.074 148.598 956.719 155.819"></path>
</g>
<path fill="white" d="M941.702 177.726L941.702 177.726C929.174 171.632 914.078 176.848 907.985 189.376L907.985 189.376C901.891 201.904 907.107 217 919.635 223.093L919.635 223.094C932.163 229.187 947.259 223.971 953.353 211.443L953.353 211.443C959.446 198.915 954.23 183.819 941.702 177.726Z"></path>
<path stroke-width="3.17877" stroke="black" d="M921.969 218.287C931.971 223.152 944.023 218.987 948.887 208.985C953.752 198.983 949.588 186.932 939.586 182.067C929.584 177.202 917.532 181.366 912.667 191.368C907.802 201.37 911.967 213.422 921.969 218.287Z"></path>
<path fill="black" d="M934.734 196.639C932.999 196.904 931.452 196.532 930.099 195.522C928.742 194.513 927.934 193.155 927.674 191.447L927.286 188.907L929.802 188.523L930.189 191.064C930.343 192.074 930.817 192.872 931.615 193.456C932.408 194.041 933.32 194.255 934.342 194.099L938.787 193.408C940.2 193.188 941.522 194.157 941.738 195.571L934.734 196.639Z"></path>
<path fill="black" d="M934.202 204.196C933.937 202.458 934.307 200.909 935.314 199.554C936.321 198.194 937.676 197.387 939.381 197.127L941.916 196.74L942.301 199.26L939.765 199.647C938.756 199.801 937.96 200.275 937.377 201.073C936.794 201.868 936.581 202.781 936.738 203.806L937.432 208.268C937.651 209.678 936.683 210.998 935.273 211.214L934.202 204.196Z"></path>
<path fill="black" d="M926.615 203.666C928.35 203.401 929.896 203.773 931.25 204.783C932.607 205.792 933.414 207.15 933.675 208.857L934.062 211.398L931.547 211.782L931.159 209.241C931.005 208.23 930.531 207.433 929.734 206.848C928.94 206.264 928.028 206.05 927.006 206.206L922.561 206.897C921.149 207.117 919.826 206.148 919.611 204.734L926.615 203.666Z"></path>
<path fill="black" d="M927.18 196.329C927.445 198.067 927.075 199.616 926.068 200.972C925.061 202.331 923.706 203.138 922.002 203.399L919.466 203.786L919.081 201.265L921.617 200.878C922.626 200.724 923.422 200.25 924.005 199.452C924.588 198.657 924.801 197.744 924.645 196.719L923.951 192.257C923.731 190.847 924.699 189.527 926.109 189.311L927.18 196.329Z"></path>
</g>
<g clip-path="url(#clip3_972_41097)">
<path stroke-linecap="round" stroke-miterlimit="10" stroke-width="1.71831" stroke="#FFFDF8" d="M526.724 476.628L613.337 503.838"></path>
<path stroke-linecap="round" stroke-miterlimit="10" stroke-width="1.71831" stroke="#FFFDF8" d="M643.945 419.968L613.337 503.838"></path>
<path stroke-linecap="round" stroke-miterlimit="10" stroke-width="1.71831" stroke="#FFFDF8" d="M605.835 440.766L613.337 503.838"></path>
<path stroke-linecap="round" stroke-miterlimit="10" stroke-width="1.71831" stroke="#FFFDF8" d="M566.388 460.101L613.337 503.838"></path>
</g>
<g clip-path="url(#clip4_972_41097)">
<path fill="#FFD13F" d="M564.672 402.667C495.845 435.438 510.669 499.18 531.826 496.648C549.881 494.488 548.606 461.116 548.606 461.116C548.606 461.116 580.696 437.885 564.678 402.68C580.713 437.877 619.305 428.928 619.305 428.928C619.305 428.928 643.638 451.802 657.122 439.602C672.92 425.31 634.577 372.276 564.672 402.667Z"></path>
<path fill="#AB9FF2" d="M564.672 402.667C506.885 438.526 528.407 474.116 543.195 479.3C557.673 484.373 565.645 469.586 565.645 469.586C565.645 469.586 580.7 437.893 564.68 402.684C580.715 437.881 614.506 447.341 614.506 447.341C614.506 447.341 630.892 451.037 636.573 436.787C642.373 422.229 629.658 382.63 564.672 402.667Z"></path>
<path fill="#FFD13F" d="M564.672 402.667C526.386 447.57 553.346 471.372 568.78 468.666C581.459 466.444 586.568 450.76 586.57 450.754C586.572 450.758 601.76 457.201 611.761 449.098C623.928 439.237 623.678 403.274 564.672 402.667Z"></path>
<path fill="#AB9FF2" d="M590.296 459.884C607.935 451.854 602.606 415.825 564.672 402.667C549.688 439.917 573.359 467.596 590.998 459.565"></path>
</g>
<path fill="white" d="M604.979 494.433L604.978 494.433C587.973 504.387 582.257 526.242 592.211 543.247L592.211 543.248C602.165 560.253 624.02 565.969 641.026 556.015L641.026 556.015C658.031 546.061 663.748 524.206 653.793 507.2L653.793 507.2C643.839 490.195 621.984 484.478 604.979 494.433Z"></path>
<path stroke-width="4.49608" stroke="black" d="M637.203 549.496C650.78 541.549 655.343 524.1 647.396 510.524C639.449 496.947 622.001 492.383 608.424 500.331C594.848 508.278 590.284 525.726 598.231 539.303C606.178 552.879 623.627 557.443 637.203 549.496Z"></path>
<path fill="black" d="M621.758 517.481C620.707 519.73 619.056 521.257 616.805 522.057C614.552 522.861 612.32 522.744 610.107 521.71L606.814 520.171L608.337 516.911L611.631 518.45C612.941 519.062 614.252 519.131 615.565 518.651C616.876 518.177 617.843 517.272 618.463 515.947L621.139 510.175C621.99 508.341 624.169 507.546 626 508.402L621.758 517.481Z"></path>
<path fill="black" d="M630.231 524.04C627.978 522.987 626.447 521.335 625.643 519.086C624.834 516.835 624.948 514.606 625.98 512.397L627.516 509.11L630.783 510.636L629.247 513.923C628.636 515.231 628.569 516.54 629.051 517.852C629.528 519.163 630.435 520.13 631.763 520.751L637.558 523.438C639.389 524.287 640.182 526.462 639.328 528.29L630.231 524.04Z"></path>
<path fill="black" d="M623.65 532.55C624.701 530.301 626.353 528.774 628.603 527.974C630.856 527.169 633.088 527.286 635.301 528.32L638.594 529.859L637.071 533.12L633.778 531.581C632.467 530.969 631.157 530.9 629.843 531.379C628.532 531.854 627.565 532.758 626.945 534.084L624.269 539.856C623.418 541.69 621.24 542.485 619.408 541.629L623.65 532.55Z"></path>
<path fill="black" d="M615.463 526.124C617.716 527.177 619.247 528.829 620.051 531.078C620.86 533.329 620.746 535.558 619.713 537.767L618.178 541.054L614.911 539.528L616.447 536.241C617.058 534.933 617.125 533.624 616.643 532.312C616.166 531.001 615.259 530.034 613.931 529.413L608.136 526.726C606.305 525.877 605.512 523.702 606.366 521.873L615.463 526.124Z"></path>
<path fill="#FFFDF8" d="M871.194 37.4775C850.522 37.1636 843.713 41.523 834.033 61.995C833.193 63.7388 830.55 63.0587 830.673 61.1406C832.073 38.5586 828.222 31.4614 809.948 21.8357C808.303 20.9638 808.933 18.4877 810.806 18.5225C831.478 18.8364 838.269 14.4595 847.967 -5.99501C848.807 -7.73879 851.45 -7.05872 851.327 -5.14056C849.927 17.4414 853.778 24.5386 872.052 34.1643C873.697 35.0362 873.067 37.5123 871.194 37.4775Z" opacity="0.2"></path>
<path fill="#FFFDF8" d="M1061.48 334.484C1051.19 339.992 1049.03 344.036 1049.82 356.935C1049.88 358.041 1048.4 358.419 1047.92 357.423C1042.47 345.739 1038.65 343.239 1027.02 343.419C1025.96 343.438 1025.61 342.024 1026.53 341.526C1036.82 336.018 1038.97 331.974 1038.18 319.065C1038.12 317.959 1039.6 317.581 1040.08 318.577C1045.53 330.261 1049.35 332.761 1060.98 332.581C1062.04 332.562 1062.39 333.976 1061.47 334.474L1061.48 334.484Z" opacity="0.2"></path>
<path fill="#FFFDF8" d="M825.472 656.803C795.484 672.777 789.164 684.505 791.462 721.912C791.663 725.118 787.326 726.216 785.947 723.327C770.033 689.444 758.888 682.194 724.964 682.714C721.89 682.772 720.856 678.67 723.556 677.225C753.545 661.252 759.836 649.524 757.538 612.088C757.337 608.882 761.674 607.785 763.053 610.673C778.967 644.556 790.112 651.806 824.036 651.286C827.11 651.228 828.144 655.33 825.444 656.774L825.472 656.803Z" opacity="0.2"></path>
<path fill="#FFFDF8" d="M595.492 225.606C579.801 238.058 577.393 245.5 582.747 266.808C583.209 268.634 580.809 269.736 579.698 268.22C566.819 250.417 559.571 247.446 539.935 251.418C538.157 251.784 537.116 249.532 538.528 248.407C554.219 235.956 556.61 228.517 551.253 207.192C550.791 205.366 553.191 204.264 554.302 205.78C567.181 223.583 574.429 226.554 594.065 222.582C595.843 222.216 596.884 224.468 595.472 225.593L595.492 225.606Z" opacity="0.2"></path>
<g clip-path="url(#clip5_972_41097)">
<path stroke-linecap="round" stroke-miterlimit="10" stroke-width="3.41314" stroke="#FFFDF8" d="M703.035 267.412L814.643 409.057"></path>
<path stroke-linecap="round" stroke-miterlimit="10" stroke-width="3.41314" stroke="#FFFDF8" d="M958.791 305.755L814.643 409.057"></path>
<path stroke-linecap="round" stroke-miterlimit="10" stroke-width="3.41314" stroke="#FFFDF8" d="M872.979 297.189L814.643 409.057"></path>
<path stroke-linecap="round" stroke-miterlimit="10" stroke-width="3.41314" stroke="#FFFDF8" d="M786.612 284.724L814.643 409.057"></path>
</g>
<g clip-path="url(#clip6_972_41097)">
<path fill="#FFD13F" d="M848.125 188.586C698.513 165.257 651.439 286.426 688.981 305.967C721.02 322.646 756.305 266.473 756.305 266.473C756.305 266.473 834.967 264.305 848.12 188.613C835.003 264.311 908.336 292.855 908.336 292.855C908.336 292.855 922.632 357.632 958.418 352.722C1000.34 346.97 996.84 217.026 848.125 188.586Z"></path>
<path fill="#FF7243" d="M848.125 188.586C713.165 182.688 708.61 265.175 727.062 290.244C745.131 314.781 774.77 299.453 774.77 299.453C774.77 299.453 834.964 264.323 848.119 188.622C835.001 264.32 879.839 317.685 879.839 317.685C879.839 317.685 902.581 342.103 927.861 325.088C953.68 307.702 977.173 228.5 848.125 188.586Z"></path>
<path fill="#4A87F2" d="M848.125 188.586C735.026 219.364 752.594 288.608 780.944 301.455C804.231 312.009 830.179 292.003 830.19 291.996C830.188 292.005 847.888 319.585 873.369 317.493C904.372 314.945 944.242 255.669 848.125 188.586Z"></path>
<path fill="#AB9FF2" d="M826.076 311.147C864.007 317.73 895.617 252.656 848.125 188.586C781.824 232.91 789.653 304.827 827.584 311.409"></path>
</g>
<path fill="white" d="M811.466 384.267L811.466 384.267C772.42 381.549 738.565 410.999 735.848 450.045L735.848 450.045C733.13 489.091 762.58 522.946 801.626 525.663L801.626 525.663C840.672 528.381 874.527 498.931 877.244 459.885L877.244 459.885C879.962 420.839 850.512 386.984 811.466 384.267Z"></path>
<path stroke-width="8.93074" stroke="black" d="M802.657 510.688C833.83 512.857 860.859 489.345 863.028 458.172C865.197 427 841.685 399.97 810.513 397.801C779.34 395.632 752.311 419.144 750.141 450.316C747.972 481.489 771.484 508.518 802.657 510.688Z"></path>
<path fill="black" d="M813.177 440.87C808.935 443.383 804.515 444.037 799.927 442.829C795.33 441.626 791.8 438.934 789.327 434.759L785.648 428.545L791.8 424.903L795.479 431.116C796.943 433.588 799.016 435.168 801.707 435.853C804.389 436.543 806.989 436.143 809.49 434.662L820.345 428.191C823.794 426.135 828.259 427.272 830.306 430.728L813.177 440.87Z"></path>
<path fill="black" d="M819.731 461.12C817.214 456.869 816.553 452.444 817.752 447.854C818.947 443.256 821.631 439.726 825.798 437.259L831.999 433.587L835.649 439.75L829.448 443.422C826.98 444.882 825.404 446.955 824.724 449.647C824.04 452.331 824.444 454.934 825.928 457.439L832.424 468.338C834.477 471.782 833.342 476.238 829.893 478.281L819.731 461.12Z"></path>
<path fill="black" d="M799.404 467.708C803.646 465.196 808.066 464.541 812.654 465.75C817.251 466.953 820.781 469.645 823.253 473.82L826.932 480.033L820.781 483.676L817.102 477.463C815.638 474.991 813.565 473.41 810.874 472.725C808.192 472.035 805.592 472.435 803.091 473.916L792.236 480.387C788.786 482.443 784.322 481.307 782.275 477.851L799.404 467.708Z"></path>
<path fill="black" d="M793.17 447.997C795.686 452.248 796.348 456.673 795.148 461.263C793.954 465.862 791.27 469.39 787.102 471.858L780.901 475.53L777.252 469.368L783.453 465.695C785.92 464.234 787.496 462.162 788.176 459.47C788.861 456.786 788.457 454.183 786.973 451.678L780.476 440.779C778.423 437.335 779.558 432.879 783.008 430.836L793.17 447.997Z"></path>
<g clip-path="url(#clip7_972_41097)">
<path stroke-linecap="round" stroke-miterlimit="10" stroke-width="1.31215" stroke="#FFFDF8" d="M946.577 613.127L991.816 665.659"></path>
<path stroke-linecap="round" stroke-miterlimit="10" stroke-width="1.31215" stroke="#FFFDF8" d="M1045.45 623.569L991.816 665.659"></path>
<path stroke-linecap="round" stroke-miterlimit="10" stroke-width="1.31215" stroke="#FFFDF8" d="M1012.35 621.716L991.816 665.659"></path>
<path stroke-linecap="round" stroke-miterlimit="10" stroke-width="1.31215" stroke="#FFFDF8" d="M978.967 618.376L991.816 665.659"></path>
</g>
<g clip-path="url(#clip8_972_41097)">
<path fill="#FF7243" d="M1000.98 580.421C943.128 573.967 927.078 621.294 941.825 628.17C954.41 634.04 967.02 611.874 967.02 611.874C967.02 611.874 997.196 609.723 1000.98 580.431C997.21 609.725 1025.85 619.459 1025.85 619.459C1025.85 619.459 1032.43 644.099 1046.09 641.614C1062.1 638.702 1058.58 588.852 1000.98 580.421Z"></path>
<path fill="#AB9FF2" d="M1000.98 580.421C949.048 580.416 948.68 612.174 956.187 621.493C963.538 630.615 974.665 624.231 974.665 624.231C974.665 624.231 997.196 609.73 1000.98 580.435C997.21 609.728 1015.33 629.473 1015.33 629.473C1015.33 629.473 1024.47 638.47 1033.89 631.512C1043.52 624.402 1051.21 593.589 1000.98 580.421Z"></path>
<path fill="#FF7243" d="M1000.98 580.421C958.059 594.137 965.966 620.437 977.07 624.897C986.191 628.56 995.822 620.441 995.826 620.438C995.825 620.442 1003.09 630.738 1012.84 629.508C1024.7 628.01 1039.02 604.576 1000.98 580.421Z"></path>
<path fill="#AB9FF2" d="M994.566 627.863C1009.24 629.756 1020.3 604.233 1000.98 580.421C976.26 598.555 980.471 626.046 995.15 627.938"></path>
</g>
<path fill="white" d="M990.18 656.191L990.18 656.191C975.138 655.802 962.629 667.68 962.239 682.722L962.239 682.722C961.85 697.764 973.728 710.273 988.77 710.663L988.77 710.663C1003.81 711.052 1016.32 699.174 1016.71 684.132L1016.71 684.132C1017.1 669.09 1005.22 656.581 990.18 656.191Z"></path>
<path stroke-width="3.43334" stroke="black" d="M988.915 704.894C1000.92 705.205 1010.91 695.722 1011.22 683.713C1011.53 671.704 1002.05 661.716 990.041 661.405C978.032 661.094 968.044 670.578 967.734 682.587C967.423 694.596 976.906 704.583 988.915 704.894Z"></path>
<path fill="black" d="M991.786 677.902C990.198 678.938 988.512 679.264 986.729 678.877C984.944 678.492 983.543 677.517 982.523 675.955L981.006 673.63L983.308 672.128L984.825 674.453C985.428 675.377 986.251 675.95 987.296 676.168C988.338 676.388 989.33 676.191 990.265 675.58L994.326 672.913C995.617 672.065 997.351 672.427 998.194 673.72L991.786 677.902Z"></path>
<path fill="black" d="M994.642 685.57C993.604 683.98 993.276 682.291 993.66 680.508C994.042 678.722 995.013 677.321 996.573 676.304L998.893 674.79L1000.4 677.096L998.078 678.61C997.154 679.212 996.584 680.035 996.368 681.08C996.15 682.122 996.349 683.115 996.96 684.052L999.638 688.13C1000.48 689.418 1000.12 691.149 998.833 691.991L994.642 685.57Z"></path>
<path fill="black" d="M986.945 688.441C988.533 687.405 990.219 687.08 992.002 687.467C993.787 687.852 995.188 688.827 996.208 690.389L997.725 692.713L995.423 694.216L993.906 691.891C993.303 690.966 992.48 690.394 991.435 690.176C990.393 689.956 989.401 690.153 988.466 690.764L984.405 693.431C983.114 694.278 981.381 693.917 980.537 692.623L986.945 688.441Z"></path>
<path fill="black" d="M984.221 680.975C985.259 682.565 985.587 684.254 985.203 686.037C984.821 687.823 983.85 689.223 982.29 690.241L979.97 691.755L978.465 689.449L980.785 687.935C981.709 687.333 982.279 686.51 982.495 685.465C982.713 684.423 982.514 683.43 981.903 682.492L979.225 678.415C978.378 677.127 978.74 675.396 980.03 674.554L984.221 680.975Z"></path>
<g clip-path="url(#clip9_972_41097)">
<path stroke-linecap="round" stroke-miterlimit="10" stroke-width="0.944425" stroke="#FFFDF8" d="M589.78 39.2821L639.639 37.3067"></path>
<path stroke-linecap="round" stroke-miterlimit="10" stroke-width="0.944425" stroke="#FFFDF8" d="M639.931 -11.7632L639.639 37.3067"></path>
<path stroke-linecap="round" stroke-miterlimit="10" stroke-width="0.944425" stroke="#FFFDF8" d="M624.067 6.06235L639.639 37.3067"></path>
<path stroke-linecap="round" stroke-miterlimit="10" stroke-width="0.944425" stroke="#FFFDF8" d="M607.24 23.3787L639.639 37.3067"></path>
</g>
<g clip-path="url(#clip10_972_41097)">
<path fill="#FF7243" d="M595.706 -6.02079C566.167 23.6936 585.653 53.9276 596.13 48.6956C605.072 44.231 598.227 27.2001 598.227 27.2001C598.227 27.2001 610.525 9.23136 595.711 -6.01533C610.532 9.22429 628.842 -2.55988 628.842 -2.55988C628.842 -2.55988 645.672 4.76552 650.388 -4.04646C655.913 -14.3698 626.243 -34.7038 595.706 -6.02079Z"></path>
<path fill="#AB9FF2" d="M595.706 -6.02107C572.452 23.2448 590.185 37.6703 598.798 37.6119C607.229 37.5527 608.614 28.4242 608.614 28.4242C608.614 28.4242 610.529 9.23472 595.713 -6.0138C610.534 9.22583 629.772 7.85702 629.772 7.85702C629.772 7.85702 638.936 6.73203 639.234 -1.69449C639.536 -10.3021 625.617 -28.4348 595.706 -6.02107Z"></path>
<path fill="#FF7243" d="M595.706 -6.02109C584.219 24.3094 602.581 31.628 610.065 27.3668C616.213 23.8669 615.95 14.8046 615.95 14.801C615.952 14.8028 625.005 15.3211 628.677 9.27463C633.145 1.91745 626.35 -16.6446 595.706 -6.02109Z"></path>
<path fill="#AB9FF2" d="M619.57 18.8348C627.209 11.4098 617.773 -6.24459 595.706 -6.02108C594.858 16.0303 612.236 25.9645 619.874 18.5396"></path>
</g>
<path fill="white" d="M633.571 33.9894L633.571 33.9895C626.617 42.2922 627.711 54.6601 636.013 61.6141L636.013 61.6141C644.316 68.5681 656.684 67.4747 663.638 59.172L663.638 59.1719C670.592 50.8693 669.499 38.5013 661.196 31.5474L661.196 31.5473C652.893 24.5934 640.525 25.6867 633.571 33.9894Z"></path>
<path stroke-width="2.47116" stroke="black" d="M660.452 56.5074C666.003 49.8788 665.131 40.0046 658.502 34.4528C651.873 28.901 641.999 29.7739 636.447 36.4025C630.896 43.0311 631.768 52.9053 638.397 58.4571C645.026 64.0089 654.9 63.136 660.452 56.5074Z"></path>
<path fill="black" d="M646.526 42.8051C646.399 44.1635 645.827 45.2597 644.811 46.0908C643.795 46.9246 642.618 47.2778 641.281 47.153L639.292 46.9672L639.476 44.9977L641.465 45.1834C642.256 45.2574 642.947 45.0499 643.538 44.5586C644.129 44.0699 644.461 43.4227 644.536 42.622L644.851 39.1394C644.951 38.0326 645.931 37.2175 647.038 37.3209L646.526 42.8051Z"></path>
<path fill="black" d="M652.126 44.6282C650.765 44.501 649.666 43.9301 648.833 42.9155C647.998 41.9006 647.643 40.7261 647.768 39.3917L647.953 37.4061L649.927 37.5904L649.741 39.576C649.667 40.366 649.875 41.0557 650.368 41.6455C650.858 42.235 651.506 42.5675 652.308 42.6423L655.805 42.9586C656.91 43.0586 657.723 44.0368 657.62 45.1413L652.126 44.6282Z"></path>
<path fill="black" d="M650.298 50.2512C650.425 48.8927 650.996 47.7966 652.012 46.9655C653.029 46.1316 654.205 45.7785 655.542 45.9033L657.532 46.0891L657.348 48.0587L655.358 47.8728C654.567 47.799 653.876 48.0064 653.285 48.4977C652.695 48.9863 652.362 49.6336 652.287 50.4343L651.972 53.9168C651.872 55.0237 650.892 55.8387 649.786 55.7354L650.298 50.2512Z"></path>
<path fill="black" d="M644.87 48.444C646.231 48.5712 647.33 49.1422 648.163 50.1568C648.998 51.1717 649.353 52.3461 649.228 53.6806L649.043 55.6661L647.069 55.4818L647.255 53.4962C647.329 52.7062 647.121 52.0166 646.628 51.4268C646.138 50.8373 645.49 50.5048 644.688 50.4298L641.191 50.1136C640.086 50.0137 639.272 49.0355 639.376 47.9309L644.87 48.444Z"></path>
</g>
<defs>
<filter color-interpolation-filters="sRGB" filterUnits="userSpaceOnUse" height="146.152" width="136.749" y="89.1605" x="894.452" id="filter0_d_972_41097">
<feFlood result="BackgroundImageFix" flood-opacity="0"></feFlood>
<feColorMatrix result="hardAlpha" values="0 0 0 0 0 0 0 0 0 0 0 0 0 0 0 0 0 0 127 0" type="matrix" in="SourceAlpha"></feColorMatrix>
<feOffset dy="4.83602"></feOffset>
<feGaussianBlur stdDeviation="2.41801"></feGaussianBlur>
<feComposite operator="out" in2="hardAlpha"></feComposite>
<feColorMatrix values="0 0 0 0 0 0 0 0 0 0 0 0 0 0 0 0 0 0 0.25 0" type="matrix"></feColorMatrix>
<feBlend result="effect1_dropShadow_972_41097" in2="BackgroundImageFix" mode="normal"></feBlend>
<feBlend result="shape" in2="effect1_dropShadow_972_41097" in="SourceGraphic" mode="normal"></feBlend>
</filter>
<clipPath id="clip0_972_41097">
<rect fill="white" height="700" width="1632"></rect>
</clipPath>
<clipPath id="clip1_972_41097">
<rect transform="translate(923.352 123.329) rotate(32.5547)" fill="white" height="44.7192" width="92.6329"></rect>
</clipPath>
<clipPath id="clip2_972_41097">
<rect transform="translate(933.325 89.1605) rotate(31.8015)" fill="white" height="51.3165" width="109.475"></rect>
</clipPath>
<clipPath id="clip3_972_41097">
<rect transform="translate(526.575 473.31) rotate(-23.7259)" fill="white" height="63.2512" width="131.021"></rect>
</clipPath>
<clipPath id="clip4_972_41097">
<rect transform="translate(494.208 434.749) rotate(-24.4791)" fill="white" height="72.5825" width="154.843"></rect>
</clipPath>
<clipPath id="clip5_972_41097">
<rect transform="translate(706.507 261.801) rotate(10.5976)" fill="white" height="125.638" width="260.252"></rect>
</clipPath>
<clipPath id="clip6_972_41097">
<rect transform="translate(696.6 162.292) rotate(9.8444)" fill="white" height="144.173" width="307.57"></rect>
</clipPath>
<clipPath id="clip7_972_41097">
<rect transform="translate(947.816 610.914) rotate(8.09984)" fill="white" height="48.3005" width="100.051"></rect>
</clipPath>
<clipPath id="clip8_972_41097">
<rect transform="translate(942.344 572.861) rotate(7.34667)" fill="white" height="55.4261" width="118.242"></rect>
</clipPath>
<clipPath id="clip9_972_41097">
<rect transform="translate(589.088 37.5928) rotate(-43.4352)" fill="white" height="34.7645" width="72.0124"></rect>
</clipPath>
<clipPath id="clip10_972_41097">
<rect transform="translate(565.193 23.6399) rotate(-44.1884)" fill="white" height="39.8932" width="85.1055"></rect>
</clipPath>
</defs>
</svg>
